# xmcd
#
# Track frame offsets:
# 150
# 18617
# 38746
# 57936
# 89816
# 113623
#
# Disc length: 1752 seconds
#
# Revision: 0
# Processed by: cddbd v1.5.1PL2 Copyright (c) Steve Scherf et al.
# Submitted via: Audion 3.0.2 (http://www.panic.com/audion/)
#
DISCID=4906d606
DTITLE=Kubb - Live from London -EP
DYEAR=1900
DGENRE=
TTITLE0=I don`t mind
TTITLE1=Remain
TTITLE2=Somebody
TTITLE3=Chemical
TTITLE4=Crow
TTITLE5=Wicked Soul
EXTD=
EXTT0=
EXTT1=
EXTT2=
EXTT3=
EXTT4=
EXTT5=
PLAYORDER=
